<svg width="20" height="20" viewBox="0 0 20 20" fill="none" xmlns="http://www.w3.org/2000/svg">
<path fill-rule="evenodd" clip-rule="evenodd" d="M14.1157 2.5C15.2332 2.5 16.3082 2.94167 17.099 3.73417C17.8907 4.525 18.3332 5.59167 18.3332 6.70833V13.2917C18.3332 15.6167 16.4415 17.5 14.1157 17.5H5.88317C3.55734 17.5 1.6665 15.6167 1.6665 13.2917V6.70833C1.6665 4.38333 3.549 2.5 5.88317 2.5H14.1157ZM15.4415 7.95L15.5082 7.88333C15.7073 7.64167 15.7073 7.29167 15.499 7.05C15.3832 6.92583 15.224 6.85 15.0582 6.83333C14.8832 6.82417 14.7165 6.88333 14.5907 7L10.8332 10C10.3498 10.4008 9.65734 10.4008 9.1665 10L5.4165 7C5.15734 6.80833 4.799 6.83333 4.58317 7.05833C4.35817 7.28333 4.33317 7.64167 4.524 7.89167L4.63317 8L8.42484 10.9583C8.8915 11.325 9.45734 11.525 10.0498 11.525C10.6407 11.525 11.2165 11.325 11.6823 10.9583L15.4415 7.95Z" fill="#212121"/>
</svg>
